<svg viewBox="66.816 72.576 823.68 184.32" xmlns:xlink="http://www.w3.org/1999/xlink" xmlns="http://www.w3.org/2000/svg" data-name="Layer 1" id="Layer_1" style="max-height: 500px" width="823.68" height="184.32">
  <defs>
    <style>
      .cls-1 {
        fill: url(#linear-gradient);
      }

      .cls-1, .cls-2, .cls-3, .cls-4, .cls-5 {
        stroke-width: 0px;
      }

      .cls-2 {
        fill: none;
      }

      .cls-3 {
        fill: #90137b;
        isolation: isolate;
      }

      .cls-4 {
        fill: url(#linear-gradient-2);
      }

      .cls-5 {
        fill: #941f7f;
      }

      .cls-6 {
        clip-path: url(#clippath);
      }
    </style>
    <clipPath id="clippath">
      <path d="M572.89,108.58c-31.3,24.39-36.91,69.7-12.52,100.99,13.73,17.62,34.43,27.72,56.8,27.72,16.14,0,31.43-5.26,44.19-15.19,15.13-11.8,24.77-28.82,27.14-47.91,2.38-19.1-2.82-37.95-14.62-53.08-3.05-3.91-6.49-7.51-10.24-10.7-.8-.68-1.81-1.05-2.85-1.05-1.39,0-2.72.68-3.56,1.83l-39.78,54.64-19.93-24.37c-.81-.99-1.95-1.54-3.14-1.54-1.28,0-2.46.63-3.26,1.72l-8.47,11.63c-1.33,1.84-1.26,4.55.18,6.31l32.37,39.56c.79.98,1.94,1.56,3.14,1.56,1.28,0,2.47-.64,3.28-1.75l41.58-57.1c11.19,21.87,5.38,48.94-14.28,64.27-9.16,7.15-20.14,10.92-31.73,10.92-16.08,0-30.95-7.25-40.82-19.92-8.48-10.87-12.2-24.42-10.5-38.14,1.71-13.71,8.63-25.94,19.5-34.42,9.17-7.14,20.14-10.92,31.74-10.92,7.09,0,13.94,1.39,20.39,4.14,2.09.9,4.77.15,6.09-1.65l6.71-9.22c.76-1.05,1.03-2.32.72-3.52-.29-1.19-1.12-2.18-2.25-2.74-9.87-4.82-20.53-7.27-31.66-7.27-16.14,0-31.42,5.26-44.19,15.21" class="cls-2"/>
    </clipPath>
    <linearGradient gradientUnits="userSpaceOnUse" gradientTransform="translate(1077.99 -30241.54) rotate(-180) scale(27.24 -27.24)" y2="1116.16" x2="19.66" y1="1116.16" x1="13.22" id="linear-gradient">
      <stop stop-color="#e83762" offset="0"/>
      <stop stop-color="#9a1f81" offset="1"/>
    </linearGradient>
    <linearGradient xlink:href="#linear-gradient" gradientTransform="matrix(1,0,0,1,0,0)" y2="740" x2="573" y1="740" x1="296.69" id="linear-gradient-2"/>
  </defs>
  <path d="M101.51,107.02c0-1.16.31-2.08.92-2.78.61-.68,1.52-1.03,2.74-1.03h52.94c3.8,0,7.4.52,10.77,1.57,3.36,1.05,6.46,2.5,9.28,4.35,2.81,1.85,5.36,4.06,7.63,6.64,2.26,2.56,4.18,5.34,5.75,8.32,1.57,2.98,2.78,6.12,3.61,9.4.83,3.28,1.24,6.61,1.24,9.98,0,4.98-.9,9.83-2.69,14.59-1.8,4.75-4.36,8.98-7.67,12.68-3.32,3.7-7.29,6.7-11.93,8.99-4.65,2.3-9.78,3.48-15.42,3.53h-25.1v39.44c0,2.37-1.27,3.55-3.81,3.55h-24.6c-1.11,0-1.99-.29-2.66-.86-.67-.58-1-1.49-1-2.7v-115.67ZM163.91,143.31c0-1.66-.29-3.32-.87-4.97-.59-1.65-1.42-3.14-2.53-4.43-1.1-1.3-2.45-2.36-4.02-3.19-1.58-.82-3.36-1.24-5.35-1.24h-17.56v27.67h17.56c1.99,0,3.78-.4,5.38-1.2,1.6-.8,2.95-1.83,4.02-3.1,1.08-1.28,1.9-2.74,2.49-4.39.58-1.66.87-3.37.87-5.14" class="cls-5"/>
  <path d="M245.44,106.44c.05-.33.23-.68.54-1.08.3-.39.68-.74,1.12-1.08.44-.34.92-.59,1.41-.79.49-.19.96-.29,1.4-.29h21.22c.93,0,1.73.29,2.4.87.66.58,1.15,1.09,1.48,1.54l2.07,4.72,43.51,112.19c.44,1.11.36,2-.25,2.69-.6.69-1.65,1.04-3.14,1.04h-23.77c-1.28,0-2.26-.23-2.94-.7-.7-.48-1.24-1.26-1.62-2.37-1.11-2.81-2.18-5.62-3.23-8.41-1.06-2.79-2.11-5.58-3.16-8.41h-44c-1.05,2.83-2.11,5.62-3.19,8.41-1.08,2.79-2.14,5.59-3.19,8.41-.72,2.05-2.12,3.07-4.22,3.07h-24.44c-1.05,0-1.91-.28-2.61-.83-.69-.56-.82-1.38-.37-2.49l44.99-116.49ZM260.52,141.9c-1.05,2.82-2.12,5.86-3.19,9.11-1.08,3.26-2.14,6.55-3.19,9.86-1.04,3.32-2.11,6.59-3.18,9.82-1.08,3.23-2.14,6.26-3.19,9.07h25.44l-12.68-37.86Z" class="cls-5"/>
  <path d="M357.33,148.62l20.01-42.84c.33-.66.61-1.14.82-1.45.23-.31.44-.53.66-.67.22-.14.46-.22.7-.25.25-.03.54-.09.87-.2h31.9c.39,0,.71.13.96.37.25.25.37.54.37.87,0,.61-.39,1.3-1.15,2.07l-39.28,69.52v46.33c0,2.59-1.27,3.89-3.8,3.89h-24.8c-1.1,0-1.95-.35-2.56-1.04-.6-.7-.91-1.64-.91-2.85v-46.48l-39.19-69.36c-.72-.71-1.08-1.4-1.08-2.07,0-.33.12-.62.33-.87.22-.25.52-.37.91-.37h31.9c.38.12.69.18.9.2.23.03.44.11.67.25.22.14.44.36.66.67.23.3.53.79.92,1.45l20.18,42.84Z" class="cls-5"/>
  <path d="M425.23,106.86c0-1,.3-1.85.91-2.57.61-.72,1.52-1.08,2.73-1.08h27.1c.76,0,1.57.19,2.4.57.83.39,1.54,1.06,2.15,1.99,7.02,11.32,13.97,22.48,20.88,33.47,6.91,10.99,13.9,22.16,20.96,33.48v-66.37c.22-.99.65-1.77,1.33-2.32.66-.55,1.44-.82,2.31-.82h23.61c1.17,0,2.14.31,2.91.95.77.64,1.16,1.53,1.16,2.7v116.16c0,1.11-.33,1.92-1,2.44-.67.53-1.57.79-2.73.79h-26.43c-.72,0-1.35-.25-1.9-.76-.56-.49-1.13-1.15-1.74-1.98-7.35-12.15-14.61-24.17-21.8-36.04-7.18-11.87-14.47-23.89-21.87-36.04v71.17c0,1.21-.28,2.13-.83,2.74-.55.61-1.55.91-2.98.91h-23.53c-1.27,0-2.19-.35-2.77-1.05-.58-.69-.87-1.53-.87-2.52v-115.84Z" class="cls-5"/>
  <path d="M728.17,224.51c-.56-.94-1.08-1.91-1.57-2.9-.49-1-.94-2-1.32-2.99-7.13-18.78-14.22-37.4-21.3-55.85-7.07-18.45-14.17-37.06-21.3-55.84,0-.28-.04-.52-.11-.75-.09-.22-.13-.44-.13-.66,0-1.55,1.02-2.32,3.07-2.32h26.68c2.1,0,3.53,1.05,4.31,3.14l25.35,75.48,23.45-75.48c.77-2.09,2.29-3.14,4.56-3.14h26.94c1.26,0,2.17.23,2.68.7.53.47.79,1.09.79,1.86,0,.44-.03.74-.09.92v.25l-14.75,42.25,11.11,32.56,26.85-75.4c.76-2.09,2.28-3.14,4.55-3.14h26.11c1.27,0,2.15.23,2.68.7.53.47.79,1.09.79,1.86,0,.44-.02.74-.09.92v.25c-3.75,9.72-7.59,19.41-11.51,29.08-3.93,9.67-7.86,19.33-11.8,28.99-3.97,9.67-7.88,19.36-11.78,29.04-3.9,9.7-7.7,19.38-11.4,29.04-.21.62-.71,1.28-1.49,2.04-.78.74-1.71,1.12-2.82,1.12h-20.3c-1.21,0-2.14-.24-2.77-.71-.64-.47-1.09-1.09-1.37-1.86l-13.09-34.48c-1.87,5.04-3.73,9.96-5.55,14.8-1.83,4.83-3.65,9.77-5.47,14.78-.28.78-.6,1.59-.96,2.44-.35.86-.79,1.67-1.28,2.41-.5.74-1.06,1.37-1.7,1.86-.63.5-1.37.76-2.19.76h-20.3c-1.76,0-2.93-.58-3.48-1.74" class="cls-5"/>
  <g class="cls-6">
    <rect transform="translate(61.76 480.44) rotate(-44.82)" height="211.27" width="211.32" y="59.7" x="507.78" class="cls-1"/>
  </g>
  <path d="M561.01,684.16c-.27-.65-.56-1.28-.85-1.93-.21-.48-.43-.96-.65-1.42-6.91-14.51-16.41-27.92-28.35-39.46-10.12-9.78-13.27-9.55-21.81,1.8-4.39,5.9-8.8,11.81-13.2,17.71-11.21,15.05-22.45,30.1-33.67,45.15-6.67,8.93-13.32,17.87-19.97,26.8-6.63,8.99-7.31,8.99-14.61,0-7.55-9.19-15.03-18.45-22.6-27.61-2.22-2.71-4.47-5.41-6.73-8.11-5.72-6.74-9.43-6.64-14.83.1-3.71,4.5-7.08,9.33-10.56,14.04-7.31,9.9-7.31,12.36.34,21.81,1.96,2.42,3.93,4.82,5.89,7.24,9.15,11.25,18.31,22.49,27.45,33.71,6.42,7.86,12.83,15.71,19.24,23.55,9.66,11.8,12.47,11.8,21.34-.23,5.54-7.51,11.07-15.01,16.6-22.52,8.63-11.69,17.26-23.38,25.9-35.08,8.89-12.03,17.79-24.07,26.72-36.11,1.91-2.58,4.83-4.28,7.3-6.51,1.24,1.72,2.86,3.29,4.15,5,.83,1.07,1.52,2.2,1.93,3.42,10.96,33.54,7.36,64.42-11.86,90.98-.04.06-.09.13-.14.19-3.41,4.69-7.31,9.25-11.71,13.66-5.88,5.9-12.03,10.96-18.44,15.14-.06.04-.13.08-.21.13-18.31,11.92-38.66,16.82-60.35,14.53-8.5-.88-17.2-2.88-26.07-5.98-10.4-3.66-19.79-8.77-28.06-15.04-14.35-10.87-25.26-25.17-31.95-41.21-8.67-20.77-10.28-44.44-3.14-67.35,3.05-9.73,7.4-18.68,12.83-26.72,8.17-12.12,18.75-22.14,30.92-29.59,17.43-10.65,38.11-15.96,59.6-14.47,6.63.45,13.32,1.56,20.03,3.36,22.93,6.18,19.11,9.1,36.52-15.17.45-.45.67-1.01.9-1.58.87-3.02,2.47-4.83,4.59-5.76-11.68-6.54-24.43-11.41-37.96-14.38-.72-.03-1.52-.13-2.36-.31-2.22-.44-4.48-.96-6.74-1.4-.01,0-.03-.01-.05-.01-2.75-.54-5.5-.98-8.23-1.02-.8-.01-1.6.01-2.39.08-2.96.19-5.48-.03-7.65-.68-19.34-.56-37.97,2.78-55.03,9.47-1.86,1.33-4.59,2.07-6.65,3.01-55.96,26.29-89.11,84.38-77.42,149.44,1.91,10.74,4.99,20.93,9.1,30.48.27.66.57,1.3.87,1.96,11.94,26.68,31.94,48.17,56.87,62.08,11.68,6.54,24.43,11.41,37.96,14.37,2.91.65,5.84,1.2,8.81,1.65,2.88.45,5.79.83,8.73,1.1,2.31.22,4.64.39,6.99.49.94.05,1.89.08,2.83.1,19.37.57,38.01-2.76,55.09-9.46,33.36-13.06,60.74-38.91,75.79-73.57,15.25-35.56,14.24-75.55-1.05-109.9Z" class="cls-4"/>
  <path d="M585.88,427.64c-2.92,5.5-4.38,8.42-5.96,11.24-18.32,31.8-36.74,63.49-54.72,95.4-2.58,4.83-4.04,10.1-4.28,15.61-.67,19.66-.79,39.44-.67,59.11.12,7.75-2.47,11.69-10.67,10.9-2.29-.21-4.35-.03-6.09.75-11.68-6.54-24.43-11.41-37.96-14.38,3.9.18,6.06-1.77,6.06-6.6.12-18.54.34-36.96,0-55.62-.12-3.93-2.58-8.09-4.6-11.8-17.65-31.46-35.4-62.82-53.04-94.28-1.58-2.92-2.82-5.96-5.17-10.79,18.09,0,33.81-.44,49.43.45,2.92.23,6.74,4.95,8.44,8.42,8.53,17.42,16.51,35.18,24.83,52.7,1.23,2.48,3.71,4.28,5.61,6.41,1.69-2.03,3.82-3.93,4.95-6.18,8.66-17.75,17.3-35.52,25.5-53.37,2.7-5.96,6.52-8.2,12.92-8.1,14.39.35,28.77.12,45.4.12Z" class="cls-3"/>
  <path d="M427.45,590.91c-17.3-46.19-35.05-92.14-52.7-138.1-12.35-32.02-6.85-25.39-37.52-26.06-15.18-.35-15.28.1-20.79,14.04-20.57,52.13-41.12,104.26-61.81,156.41-8.42,21.34-10.89,21.24,13.94,21.12,25.72,0,25.84.12,35.39-23.37,2.14-5.28,5.17-7.75,11.02-7.64,18.19.22,36.51.44,54.72.22,12.92-.22,11.46,10.9,14.72,18.09,1.52,3.45.56,5.41-1.32,6.77,17.05-6.69,35.68-10.03,55.03-9.47-5.14-1.55-8.29-5.53-10.67-12.02ZM357.45,547.2c-9.88.45-19.78.45-29.66,0-1.58-.12-4.72-3.94-4.38-5.17,5.62-16.86,11.8-33.6,17.87-50.35.1-.44,1.01-.56,3.71-2.02,5.84,17.87,11.46,34.95,16.63,52.25.45,1.24-2.58,5.28-4.16,5.28Z" class="cls-3"/>
  <path d="M832.07,650.46c12.25.11,13.26,1.57,8.76,12.7-15.06,36.52-30.23,72.92-45.17,109.33-8.2,20-16.29,39.89-24.16,60-2.7,6.97-6.85,10.34-14.61,10-36.41-1.8-27.3,6.18-40.68-28.09-3.48-8.99-7.08-17.87-10.67-26.85l-3.6.34c-4.94,12.81-10.11,25.62-14.94,38.43-5.84,15.17-6.18,15.73-22.81,15.39-26.74-.56-23.03,4.72-33.71-23.6-20.11-53.04-40.11-105.96-60.23-158.99-3.26-8.31-2.25-9.89,6.52-10,10.45-.11,21.01.45,31.46,0,7.98-.45,11.69,3.03,14.05,10.23,11.12,34.27,22.47,68.43,33.93,102.59.79,2.25,2.81,4.16,4.27,6.29,1.46-2.02,3.6-3.93,4.38-6.18,11.12-34.27,22.14-68.65,32.81-103.04,2.13-6.74,5.62-9.55,12.58-9.33,11.35.34,22.81.22,34.27.22,7.08-.11,9.55,2.47,6.85,9.66-6.52,17.53-13.26,35.17-18.88,53.04-1.69,5.39-1.35,12.02,0,17.64,2.47,10.11,6.29,19.89,9.78,29.78,1.12,3.15,2.7,6.07,5.17,11.69,2.81-6.29,4.94-10.11,6.4-14.16,12.02-32.7,24.05-65.28,35.73-98.09,2.47-7.08,6.52-9.55,13.71-9.21,9.55.45,19.21.11,28.77.22h0ZM271.38,647.31c6.4-.22,9.66,2.02,9.66,8.99-.45,58.2-.79,116.41-1.01,174.61,0,5.73-2.36,8.54-8.31,8.43-11.35-.22-22.81-.45-34.27-.11-7.42.11-10.23-4.83-13.26-9.89-18.99-31.69-37.98-63.37-57.08-95.06-1.8-2.92-3.82-5.84-5.84-8.76l-2.58.45c-.45,3.37-1.35,6.63-1.35,9.89-.34,30.45-.79,61.01-.67,91.46,0,8.76-2.58,12.36-11.69,11.69-8.65-.67-17.3-.45-25.96-.22-6.52.11-9.55-2.58-9.55-9.33.45-57.98.79-115.85,1.01-173.71,0-6.74,2.92-9.33,9.55-9.1,11.12.34,22.25.45,33.37.11,7.08-.22,11.35,2.58,14.94,8.54,18.09,29.44,36.41,58.65,54.61,87.98,1.69,2.7,3.71,5.28,5.51,7.87l2.47-.45c.56-3.37,1.46-6.63,1.46-10,.34-27.42.79-54.83.79-82.25,0-8.31,2.81-11.8,11.35-11.24,8.88.56,17.87.34,26.85.11h0ZM121.82,617.65c-7.87.34-10.11-3.03-9.78-10.56.34-28.65.11-57.31.11-85.96h.9c0-28.32.22-56.63-.11-84.95-.11-7.87,2.47-11.01,10.67-10.9,26.52.56,53.15.11,79.67.56,31.91.45,57.53,27.75,58.09,61.35.56,33.03-23.82,60.9-55.51,62.81-11.35.67-22.92.56-34.27.11-7.75-.22-10.45,2.92-10.34,10.34.22,15.62-.34,31.35-.22,47.08,0,7.42-2.7,10.67-10.45,10.23-9.55-.45-19.21-.56-28.77-.11h0ZM184.63,510.68h5.51c8.88-.22,15.06-4.72,18.88-12.47,7.53-15.39-2.58-32.81-19.78-32.81-31.24,0-27.08-4.16-27.64,22.14,0,26.85-2.47,22.81,23.03,23.15Z" class="cls-3"/>
</svg>